<svg width="1110" height="698" viewBox="0 0 1110 698" fill="none" xmlns="http://www.w3.org/2000/svg">
<path fill-rule="evenodd" clip-rule="evenodd" d="M89.2346 613.058L321.163 0.309052L472.92 459.871L550.229 232.238L853.74 611.627L931.766 459.871L1006.84 613.596L424.084 613.255L89.2346 613.058Z" fill="#6A696F"/>
<mask id="mask0_1_3" style="mask-type:luminance" maskUnits="userSpaceOnUse" x="89" y="0" width="918" height="614">
<path d="M89.2346 613.058L321.163 0.308075L472.92 459.87L550.229 232.237L853.741 611.627L931.766 459.871L1006.84 613.596L424.084 613.254L89.2356 613.058H89.2346Z" fill="white"/>
</mask>
<g mask="url(#mask0_1_3)">
<path fill-rule="evenodd" clip-rule="evenodd" d="M546.85 690.368L472.92 459.871L321.163 0.309052L318.143 689.652L546.85 690.368Z" fill="#474749"/>
</g>
<path fill-rule="evenodd" clip-rule="evenodd" d="M715.461 613.426L550.229 232.238L671.532 383.866L853.74 611.626L715.461 613.426Z" fill="#474749"/>
<path fill-rule="evenodd" clip-rule="evenodd" d="M960.031 613.569L931.766 459.871L1006.84 613.596L960.031 613.569Z" fill="#474749"/>
<path fill-rule="evenodd" clip-rule="evenodd" d="M205.199 306.684L321.163 0.309052L319.986 309.948L257.531 279.705L205.199 306.684Z" fill="white"/>
<path fill-rule="evenodd" clip-rule="evenodd" d="M397.041 230.09L319.986 309.948L321.163 0.309052L397.041 230.09Z" fill="#B3B1B4"/>
<path fill-rule="evenodd" clip-rule="evenodd" d="M650.17 462.799L544.578 380.638L472.92 459.871L550.229 232.238L650.17 462.799Z" fill="white"/>
<path fill-rule="evenodd" clip-rule="evenodd" d="M650.17 462.799L671.532 383.866L550.229 232.238L650.17 462.799Z" fill="#B3B1B4"/>
<path fill-rule="evenodd" clip-rule="evenodd" d="M1028.67 566.489L960.987 504.889L1018.59 333.69L1109.79 505.69L1028.67 566.489Z" fill="#8DA128"/>
<path d="M924.443 614H146.557C78.3184 614 23 629.222 23 648C23 666.778 78.3184 662.5 146.557 662.5H924.443C992.682 662.5 1048 666.778 1048 648C1048 629.222 992.682 614 924.443 614Z" fill="#22B0D6"/>
<path fill-rule="evenodd" clip-rule="evenodd" d="M1032.24 429.186L1018.59 333.69L960.987 504.889L1028.67 566.489L1032.24 429.186Z" fill="#727D2E"/>
<path d="M877.785 629H245.44C189.968 629 145 644.273 145 663.114C145 681.955 189.968 697.228 245.44 697.228L561.612 681.5L877.785 697.228C933.256 697.228 978.225 681.955 978.225 663.114C978.225 644.273 933.256 629 877.785 629Z" fill="#22B0D6"/>
<path d="M1035.82 429.186H1028.67V613.059H1035.82V429.186Z" fill="#585657"/>
<path d="M1032.68 482.138L1035.38 477.459L990.061 451.292L987.36 455.971L1032.68 482.138Z" fill="#585657"/>
<path d="M1032.66 522.657L1035.38 517.941L989.707 491.57L986.985 496.285L1032.66 522.657Z" fill="#585657"/>
<path fill-rule="evenodd" clip-rule="evenodd" d="M0.453125 613.058H1071.62C1071.62 630.626 1057.25 644.999 1039.68 644.999H32.3941C14.8262 644.999 0.453125 630.626 0.453125 613.058Z" fill="#B9C861"/>
<path d="M1030.61 494.195L1033.11 498.516L1074.96 474.351L1072.47 470.03L1030.61 494.195Z" fill="#585657"/>
<path d="M1030.61 535.055L1033.22 539.579L1077.05 514.277L1074.44 509.752L1030.61 535.055Z" fill="#585657"/>
</svg>
